<?xml version="1.0" encoding="UTF-8"?>
<!DOCTYPE svg  PUBLIC '-//W3C//DTD SVG 1.1//EN'  'http://www.w3.org/Graphics/SVG/1.1/DTD/svg11.dtd'>
<svg clip-rule="evenodd" fill-rule="evenodd" stroke-linejoin="round" stroke-miterlimit="2" version="1.1" viewBox="0 0 400 500" xml:space="preserve" xmlns="http://www.w3.org/2000/svg">

        <rect width="400" height="500" fill="#8a6780"/>
    <g transform="matrix(4.5736 0 0 4.5736 117.34 180.67)">
            <path d="m61.803 48h-17.803-2e-3c-1.096 0-1.998 0.902-1.998 1.998 0 0.058 3e-3 0.116 8e-3 0.174 0.12 1.031 0.999 1.82 2.038 1.828 3.823 0.025 6.954 3.177 6.954 7 0 0.137-4e-3 0.273-0.012 0.409-0.372 3.709-3.52 6.572-7.248 6.591h-27.74c-3.84 0-7-3.16-7-7 0-0.072 1e-3 -0.143 3e-3 -0.215 0.212-3.813 3.43-6.825 7.249-6.785h14.748c1.097 0 2-0.903 2-2.001 0-0.036-1e-3 -0.072-3e-3 -0.108-0.118-1.094-1.068-1.923-2.167-1.891h-0.83c-2.743-1e-3 -5-2.258-5-5.001 0-0.163 8e-3 -0.325 0.023-0.487 0.315-2.583 2.547-4.539 5.149-4.512h16.828c1.646 0 3.001-1.355 3.001-3.001 0-0.099-5e-3 -0.198-0.015-0.297-0.21-1.565-1.579-2.736-3.158-2.702h-3.828c-1.647-1e-3 -3.001-1.356-3.001-3.002 0-0.166 0.014-0.332 0.041-0.495 0.28-1.461 1.58-2.521 3.067-2.503h3.393c0.823 0 1.5-0.677 1.5-1.5s-0.677-1.5-1.5-1.5h-14.5c-1.097 0-2 0.903-2 2s0.903 2 2 2h1c1.096 2e-3 2.145 0.453 2.901 1.246 0.76 0.795 1.156 1.87 1.094 2.967-0.16 2.156-2.003 3.832-4.165 3.787h-32.8c-1.096-2e-3 -2.145-0.453-2.901-1.246-0.759-0.795-1.156-1.87-1.094-2.967 0.16-2.156 2.003-3.832 4.165-3.787h12.83c1.097 0 2-0.903 2-2s-0.903-2-2-2h-2c-1.096-2e-3 -2.145-0.453-2.901-1.246-0.759-0.795-1.156-1.87-1.094-2.967 0.16-2.156 2.003-3.832 4.165-3.787h2.33c0.823 0 1.5-0.677 1.5-1.5s-0.677-1.5-1.5-1.5h-14.5c-1.646-1e-3 -3.001-1.356-3.001-3.002 0-0.166 0.014-0.332 0.041-0.495 0.28-1.461 1.58-2.521 3.068-2.503h30.862c1.647 1e-3 3.001 1.356 3.001 3.002 0 0.166-0.014 0.332-0.041 0.495-0.28 1.461-1.58 2.521-3.067 2.503h-0.393c-0.823 0-1.5 0.677-1.5 1.5s0.677 1.5 1.5 1.5h26.587c1.096 2e-3 2.145 0.453 2.901 1.246 0.76 0.795 1.156 1.87 1.094 2.967-0.159 2.156-2.003 3.832-4.165 3.787h-0.417c-0.823 0-1.5 0.677-1.5 1.5s0.677 1.5 1.5 1.5h6.303v6h-2.803c-1.646 0-3.001 1.355-3.001 3.001 0 0.099 5e-3 0.198 0.015 0.297 0.21 1.565 1.579 2.736 3.158 2.702h2.631v10z" fill="#fff"/>
        </g>

</svg>
