<?xml version="1.0" encoding="UTF-8"?>
<!DOCTYPE svg  PUBLIC '-//W3C//DTD SVG 1.1//EN'  'http://www.w3.org/Graphics/SVG/1.1/DTD/svg11.dtd'>
<svg clip-rule="evenodd" fill-rule="evenodd" stroke-linejoin="round" stroke-miterlimit="2" version="1.1" viewBox="0 0 415 500" xml:space="preserve" xmlns="http://www.w3.org/2000/svg">

        <rect width="400" height="500" fill="#1a2d38"/>

    <g transform="matrix(.82254 .49181 -.49181 .82254 229.65 -7.4192)">
                <path d="m172.3 305.43c4.789 8.526 8.522 19.36 8.522 29.827 0 32.558-26.433 58.99-58.99 58.99-32.558 0-58.99-26.432-58.99-58.99 0-10.467 3.732-21.301 8.522-29.827 11.048-19.669 50.468-86.331 50.468-86.331s36.17 60.877 50.468 86.331z" fill="#69a0c9"/>
            </g>
    <g transform="matrix(.82254 .49181 -.49181 .82254 373.46 -93.016)">
                <path d="m172.3 305.43c4.789 8.526 8.522 19.36 8.522 29.827 0 32.558-26.433 58.99-58.99 58.99-32.558 0-58.99-26.432-58.99-58.99 0-10.467 3.732-21.301 8.522-29.827 11.048-19.669 50.468-86.331 50.468-86.331s36.17 60.877 50.468 86.331z" fill="#69a0c9"/>
            </g>
    <g transform="matrix(.82254 .49181 -.49181 .82254 362.93 82.938)">
                <path d="m172.3 305.43c4.789 8.526 8.522 19.36 8.522 29.827 0 32.558-26.433 58.99-58.99 58.99-32.558 0-58.99-26.432-58.99-58.99 0-10.467 3.732-21.301 8.522-29.827 11.048-19.669 50.468-86.331 50.468-86.331s36.17 60.877 50.468 86.331z" fill="#69a0c9"/>
            </g>


</svg>
