<?xml version="1.0" encoding="UTF-8"?>
<!DOCTYPE svg  PUBLIC '-//W3C//DTD SVG 1.1//EN'  'http://www.w3.org/Graphics/SVG/1.1/DTD/svg11.dtd'>
<svg clip-rule="evenodd" fill-rule="evenodd" stroke-linejoin="round" stroke-miterlimit="2" version="1.1" viewBox="0 0 400 500" xml:space="preserve" xmlns="http://www.w3.org/2000/svg">

        <rect width="400" height="500" fill="#1a2d38"/>

    <g transform="matrix(.95836 1.1102e-16 -1.1102e-16 .95836 195.55 101.21)">
                <path d="m166.16 330.83c-0.115 9.779-2.3 21.028-7.534 30.093-16.278 28.195-52.386 37.87-80.581 21.592-28.196-16.279-37.871-52.387-21.592-80.582 5.233-9.065 13.883-16.582 22.294-21.571 19.402-11.509 86.872-49.53 86.872-49.53s0.885 70.805 0.541 99.998z" fill="#69a0c9"/>
            </g>
    <g transform="matrix(.95836 1.1102e-16 -1.1102e-16 .95836 206.6 -74.098)">
                <path d="m166.16 330.83c-0.115 9.779-2.3 21.028-7.534 30.093-16.278 28.195-52.386 37.87-80.581 21.592-28.196-16.279-37.871-52.387-21.592-80.582 5.233-9.065 13.883-16.582 22.294-21.571 19.402-11.509 86.872-49.53 86.872-49.53s0.885 70.805 0.541 99.998z" fill="#69a0c9"/>
            </g>
    <g transform="matrix(.95836 1.1102e-16 -1.1102e-16 .95836 62.788 11.498)">
                <path d="m166.16 330.83c-0.115 9.779-2.3 21.028-7.534 30.093-16.278 28.195-52.386 37.87-80.581 21.592-28.196-16.279-37.871-52.387-21.592-80.582 5.233-9.065 13.883-16.582 22.294-21.571 19.402-11.509 86.872-49.53 86.872-49.53s0.885 70.805 0.541 99.998z" fill="#69a0c9"/>
            </g>


</svg>
