<?xml version="1.0" encoding="UTF-8"?>
<!DOCTYPE svg  PUBLIC '-//W3C//DTD SVG 1.1//EN'  'http://www.w3.org/Graphics/SVG/1.1/DTD/svg11.dtd'>
<svg clip-rule="evenodd" fill-rule="evenodd" stroke-linejoin="round" stroke-miterlimit="2" version="1.1" viewBox="0 0 400 500" xml:space="preserve" xmlns="http://www.w3.org/2000/svg">

        <rect width="400" height="500" fill="#76abcd"/>
    <g transform="matrix(1.555 0 0 1.5068 227.11 163.38)">

                <path d="m91.6 63.5-8.6 2.4-9.2-5.3 9.7-2.6c1.5-0.4 2.3-1.9 1.9-3.4s-1.9-2.3-3.4-1.9l-15 4.1-5.7-3.3v-6.8l5.7-3.3 15 4.1c0.2 0.1 0.5 0.1 0.7 0.1 1.2 0 2.3-0.8 2.7-2 0.4-1.5-0.5-3-1.9-3.4l-9.7-2.6 9.2-5.3 8.6 2.3c0.2 0.1 0.5 0.1 0.7 0.1 1.2 0 2.3-0.8 2.7-2 0.4-1.5-0.5-3-1.9-3.4l-7.1-2.1 1.9-7.1c0.4-1.5-0.5-3-2-3.4s-3 0.5-3.4 2l-2.3 8.6-9.2 5.3 2.6-9.7c0.4-1.5-0.5-3-2-3.4s-3 0.5-3.4 2l-4 15-5.7 3.3-5.9-3.4v-6.6l11-11c1.1-1.1 1.1-2.8 0-3.9s-2.8-1.1-3.9 0l-7.1 7.1v-10.5l6.3-6.3c1.1-1.1 1.1-2.8 0-3.9s-2.8-1.1-3.9 0l-5 5.2-5.2-5.2c-1.1-1.1-2.8-1.1-3.9 0s-1.1 2.8 0 3.9l6.3 6.3v10.6l-7.1-7.1c-1.1-1.1-2.8-1.1-3.9 0s-1.1 2.8 0 3.9l11 11v6.6l-5.9 3.4-5.7-3.3-4-15c-0.4-1.5-1.9-2.3-3.4-2-1.5 0.4-2.3 1.9-2 3.4l2.6 9.7-9.2-5.3-2.3-8.6c-0.4-1.5-1.9-2.3-3.4-2-1.5 0.4-2.3 1.9-2 3.4l1.9 7.1-6.8 1.8c-1.5 0.4-2.3 1.9-1.9 3.4 0.3 1.2 1.4 2 2.7 2 0.2 0 0.5 0 0.7-0.1l8.6-2.3 9.2 5.3-9.7 2.6c-1.5 0.4-2.3 1.9-1.9 3.4 0.3 1.2 1.4 2 2.7 2 0.2 0 0.5 0 0.7-0.1l15-4.1 5.7 3.3v6.8l-5.7 3.3-15-4.1c-1.5-0.4-3 0.5-3.4 1.9-0.4 1.5 0.5 3 1.9 3.4l9.7 2.6-9.3 5.5-8.6-2.3c-1.5-0.4-3 0.5-3.4 1.9-0.4 1.5 0.5 3 1.9 3.4l7.1 1.9-1.9 7.1c-0.4 1.5 0.5 3 2 3.4 0.2 0.1 0.5 0.1 0.7 0.1 1.2 0 2.3-0.8 2.7-2l2.3-8.6 9.2-5.3-2.6 9.7c-0.4 1.5 0.5 3 2 3.4 0.2 0.1 0.5 0.1 0.7 0.1 1.2 0 2.3-0.8 2.7-2l4-15 5.7-3.3 5.9 3.4v6.6l-11 11c-1.1 1.1-1.1 2.8 0 3.9s2.8 1.1 3.9 0l7.1-7.1v10.6l-6.3 6.3c-1.1 1.1-1.1 2.8 0 3.9s2.8 1.1 3.9 0l5.2-5.2 5.2 5.2c0.5 0.5 1.2 0.8 1.9 0.8s1.4-0.3 2-0.8c1.1-1.1 1.1-2.8 0-3.9l-6.3-6.3v-10.9l7.1 7.1c0.5 0.5 1.2 0.8 1.9 0.8s1.4-0.3 2-0.8c1.1-1.1 1.1-2.8 0-3.9l-11-11v-6.6l5.9-3.4 5.7 3.3 4 15c0.3 1.2 1.4 2 2.7 2 0.2 0 0.5 0 0.7-0.1 1.5-0.4 2.3-1.9 2-3.4l-2.6-9.7 9.2 5.3 2.3 8.6c0.3 1.2 1.4 2 2.7 2 0.2 0 0.5 0 0.7-0.1 1.5-0.4 2.3-1.9 2-3.4l-2.3-6.8 7.1-1.9c1.5-0.4 2.3-1.9 1.9-3.4s-1.9-2.4-3.4-2zm-41.6-6.7-5.9-3.4v-6.8l5.9-3.4 5.9 3.4v6.8l-5.9 3.4z" fill="#fff" fill-rule="nonzero"/>

        </g>
    <g transform="matrix(1.2048 0 0 1.1674 194.02 357.56)">
            <path d="m28.852 32.265h-9.941c-0.993 0.105-1.985-0.215-2.727-0.883-0.746-0.668-1.168-1.621-1.168-2.617 0-1 0.422-1.954 1.168-2.622 0.742-0.667 1.734-0.988 2.727-0.878h6.429v-6.461c-0.105-0.993 0.215-1.985 0.883-2.727 0.668-0.746 1.617-1.168 2.617-1.168s1.949 0.422 2.617 1.168c0.668 0.742 0.989 1.734 0.883 2.727v9.941c-4e-3 1.93-1.558 3.496-3.488 3.52zm-22.852 22.285 4.578-4.551-4.578-4.551c-1.379-1.378-1.379-3.617 0-5 1.379-1.378 3.621-1.378 5 0l6 6h16.41v-0.171 3e-3c0-3.648 1.945-7.015 5.102-8.839l6.39-3.68h-4e-3c0.508-0.293 1.035-0.539 1.582-0.742v-16.02l-6-6c-1.383-1.379-1.383-3.621 0-5 1.379-1.379 3.617-1.379 5 0l4.52 4.578 4.551-4.578c1.378-1.379 3.617-1.379 5 0 1.378 1.379 1.378 3.621 0 5l-6 6v16c0.546 0.203 1.074 0.449 1.578 0.738l6.39 3.68v4e-3c3.153 1.828 5.094 5.195 5.102 8.839v0.172l16.379-4e-3 6-6c1.379-1.379 3.621-1.379 5 0 1.379 1.383 1.379 3.621 0 5l-4.578 4.571 4.578 4.55c1.379 1.379 1.379 3.618 0 5-1.379 1.379-3.621 1.379-5 0l-6-6h-16.41v0.172-4e-3c0 3.645-1.945 7.012-5.102 8.832l-6.386 3.661c-0.508 0.289-1.036 0.539-1.582 0.738v16.051l6 6c1.382 1.379 1.382 3.621 0 5-1.379 1.379-3.618 1.379-5 0l-4.52-4.578-4.551 4.578c-1.379 1.379-3.617 1.379-5 0-1.379-1.379-1.379-3.621 0-5l6-6v-16c-0.547-0.203-1.074-0.449-1.578-0.738l-6.39-3.692c-3.157-1.82-5.098-5.187-5.102-8.832v-0.172l-16.379 4e-3 -6 6c-1.379 1.379-3.621 1.379-5 0-1.379-1.383-1.379-3.621 0-5v-0.019zm34.41-0.859c0 1.132 0.605 2.183 1.59 2.75l6.379 3.679c0.984 0.575 2.199 0.575 3.179 0l6.442-3.679c0.984-0.571 1.59-1.618 1.59-2.75v-7.383c0-1.133-0.606-2.18-1.59-2.75l-6.379-3.68c-0.984-0.574-2.199-0.574-3.18 0l-6.441 3.68c-0.981 0.57-1.586 1.617-1.59 2.75v7.383zm44.199-24.947c-4e-3 -1.941-1.578-3.511-3.519-3.511h-6.43v-6.43c0.105-0.992-0.215-1.985-0.883-2.727-0.668-0.746-1.617-1.168-2.617-1.168s-1.949 0.422-2.617 1.168c-0.668 0.742-0.989 1.735-0.883 2.727v9.941c4e-3 1.942 1.578 3.512 3.519 3.52h9.942c1.929-0.024 3.484-1.59 3.488-3.52zm-69.218 42.509c4e-3 1.941 1.578 3.512 3.519 3.512h6.43v6.429c-0.105 0.993 0.215 1.985 0.883 2.727 0.668 0.746 1.617 1.168 2.617 1.168s1.949-0.422 2.617-1.168c0.668-0.742 0.989-1.734 0.883-2.727v-9.941c-4e-3 -1.941-1.578-3.512-3.519-3.519h-9.911c-1.941 7e-3 -3.515 1.578-3.519 3.519zm52.238 0v9.941c-0.105 0.993 0.215 1.985 0.883 2.727 0.668 0.746 1.621 1.168 2.617 1.168 1 0 1.953-0.422 2.621-1.168 0.668-0.742 0.988-1.734 0.879-2.727v-6.429h6.43c0.996 0.105 1.988-0.215 2.73-0.883s1.164-1.617 1.164-2.617-0.421-1.949-1.164-2.617c-0.742-0.668-1.734-0.989-2.73-0.883h-9.91c-1.93 4e-3 -3.497 1.558-3.52 3.488z" fill="#fff" fill-rule="nonzero"/>
        </g>
    <g transform="matrix(1.2048 0 0 1.1674 67.009 252.41)">
            <path d="m65.828 29.34c-0.641 1.043-1.773 1.68-3 1.68-0.645 0-1.281-0.184-1.828-0.532-0.793-0.484-1.359-1.269-1.574-2.175-0.219-0.907-0.063-1.86 0.425-2.653l2.809-4.57c1.035-1.613 3.168-2.105 4.805-1.102 1.633 1.004 2.164 3.129 1.195 4.782l-2.832 4.57zm-0.18 51.25c0.653 0 1.289-0.184 1.84-0.531 0.793-0.489 1.363-1.27 1.578-2.176s0.063-1.859-0.426-2.652l-2.808-4.571h-4e-3c-1.031-1.613-3.168-2.105-4.801-1.101-1.637 1.004-2.168 3.129-1.199 4.781l2.809 4.57h3e-3c0.641 1.047 1.782 1.684 3.008 1.68zm-33.137-60.648c-0.793 0.488-1.363 1.27-1.578 2.176s-0.062 1.859 0.426 2.652l2.809 4.57h3e-3c0.641 1.043 1.774 1.68 3 1.68 0.645 0 1.282-0.183 1.829-0.531 0.793-0.485 1.359-1.27 1.574-2.176 0.219-0.906 0.062-1.859-0.426-2.652l-2.809-4.571c-0.488-0.793-1.269-1.359-2.175-1.574-0.907-0.218-1.86-0.062-2.653 0.426zm-1.152 55.289c-0.488 0.793-0.641 1.746-0.426 2.652s0.785 1.688 1.578 2.176c0.551 0.348 1.188 0.531 1.84 0.531 1.223 0 2.36-0.636 3-1.679l2.809-4.571c0.968-1.652 0.437-3.777-1.196-4.781-1.636-1.004-3.769-0.512-4.804 1.102l-2.801 4.57zm-11.77-28.75c-0.992-0.105-1.984 0.215-2.727 0.883-0.742 0.668-1.168 1.617-1.168 2.617s0.426 1.949 1.168 2.617c0.743 0.668 1.735 0.988 2.727 0.883h5.27c1.789-0.191 3.144-1.703 3.144-3.5 0-1.801-1.355-3.309-3.144-3.5h-5.27zm60.82 7c1.789-0.191 3.145-1.703 3.145-3.5 0-1.801-1.356-3.309-3.145-3.5h-5.269c-0.993-0.105-1.985 0.215-2.727 0.883-0.746 0.668-1.168 1.617-1.168 2.617s0.422 1.949 1.168 2.617c0.742 0.668 1.734 0.988 2.727 0.883h5.269zm-72.23 12.109 11 2.789-2.801 11.172c-0.383 1.844 0.758 3.664 2.586 4.125s3.695-0.598 4.235-2.406l3.3-13.16 19.809-11.82v23.191l-9.519 9.519c-1.379 1.379-1.379 3.621 0 5 1.383 1.379 3.621 1.379 5 0l8.058-8.058 8.043 8.058c1.379 1.379 3.618 1.379 5 0 1.379-1.379 1.379-3.621 0-5l-9.519-9.519v-23.402l20.18 12 3.301 13.16c0.398 1.558 1.801 2.652 3.41 2.66 0.289 0 0.578-0.039 0.859-0.109 0.903-0.227 1.684-0.805 2.16-1.606 0.481-0.801 0.618-1.758 0.391-2.664l-2.801-11.172 11-2.789c1.821-0.527 2.899-2.406 2.43-4.246-0.465-1.84-2.305-2.977-4.16-2.574l-13 3.301-20.27-12.039 20.25-12.07 13 3.3c0.285 0.071 0.574 0.11 0.867 0.11 1.773-8e-3 3.266-1.328 3.481-3.086 0.218-1.758-0.903-3.406-2.618-3.844l-11-2.789 2.801-11.172h-4e-3c0.278-0.918 0.164-1.91-0.312-2.746-0.473-0.832-1.27-1.438-2.2-1.672-0.929-0.234-1.914-0.078-2.73 0.43-0.813 0.511-1.383 1.328-1.578 2.269l-3.301 13.16-20.18 12 4e-3 -23.371 9.508-9.519c1.383-1.379 1.383-3.622 0-5-1.379-1.379-3.617-1.379-5 0l-8.071 8.058-8.027-8.058c-1.383-1.379-3.621-1.379-5 0-1.383 1.378-1.383 3.621 0 5l9.52 9.519v23.191l-19.801-11.82-3.301-13.16c-0.539-1.809-2.406-2.867-4.235-2.406-1.828 0.461-2.968 2.281-2.585 4.125l2.8 11.172-11 2.789c-1.711 0.437-2.836 2.078-2.621 3.832 0.211 1.758 1.692 3.082 3.461 3.098 0.293 0 0.586-0.039 0.871-0.11l13-3.3 20.258 12.07-20.25 12.07-13-3.301c-0.902-0.231-1.859-0.09-2.66 0.386-0.801 0.477-1.379 1.25-1.609 2.153-0.231 0.91-0.09 1.875 0.39 2.679 0.485 0.801 1.27 1.379 2.18 1.602z" fill="#fff" fill-rule="nonzero"/>
        </g>

</svg>
