<?xml version="1.0" encoding="UTF-8"?>
<!DOCTYPE svg  PUBLIC '-//W3C//DTD SVG 1.1//EN'  'http://www.w3.org/Graphics/SVG/1.1/DTD/svg11.dtd'>
<svg clip-rule="evenodd" fill-rule="evenodd" stroke-linejoin="round" stroke-miterlimit="2" version="1.1" viewBox="0 0 109 131" xml:space="preserve" xmlns="http://www.w3.org/2000/svg">
    <g transform="translate(-27.475 -18.47)">
        <g transform="matrix(2.0009 0 0 2.0009 -18.546 -21.548)" fill-rule="nonzero">
            <path d="m29 37h42c3.309 0 6-0.747 6-4.056s-2.691-4.889-6-4.889h-8.43c-1.216-4.222-4.89-8.055-9.514-8.055h-6.111c-4.624 0-8.298 3.833-9.514 8.056h-8.431c-3.309 0-6 1.58-6 4.889s2.691 4.055 6 4.055z"/>
            <path d="m41 85h18c7.411 0 13-6.019 13-14v-30c0-1.104-0.896-2-2-2h-40c-1.104 0-2 0.896-2 2v30c0 7.981 5.589 14 13 14zm14-34c0-1.104 0.896-2 2-2s2 0.896 2 2v19c0 1.104-0.896 2-2 2s-2-0.896-2-2v-19zm-14 0c0-1.104 0.896-2 2-2s2 0.896 2 2v19c0 1.104-0.896 2-2 2s-2-0.896-2-2v-19z"/>
        </g>
    </g>
</svg>
