<?xml version="1.0" encoding="UTF-8"?>
<!DOCTYPE svg  PUBLIC '-//W3C//DTD SVG 1.1//EN'  'http://www.w3.org/Graphics/SVG/1.1/DTD/svg11.dtd'>
<svg clip-rule="evenodd" fill-rule="evenodd" stroke-linejoin="round" stroke-miterlimit="2" version="1.1" viewBox="0 0 139 139" xml:space="preserve" xmlns="http://www.w3.org/2000/svg">
    <g transform="translate(-5.3961 -20.96)">
        <g transform="translate(-5.7309 2.8422e-14)">
            <g transform="matrix(1.9131 -1.9131 .60785 .60785 -201.89 283.28)">
                <path d="m138 50.72c1.025 0 1.856 2.615 1.856 5.842v32.946c0 3.226-0.831 5.841-1.856 5.841h-33.614c-0.421 0-0.83-0.45-1.159-1.278-1.207-3.036-4.292-10.795-6.259-15.743-0.43-1.082-0.686-2.711-0.697-4.445s0.223-3.394 0.64-4.53c1.956-5.341 5.072-13.847 6.301-17.204 0.338-0.922 0.77-1.429 1.216-1.429h33.572z"/>
            </g>
            <g transform="matrix(.36964 -.36964 .60785 .60785 39.559 41.828)">
                <path d="m130.26 50.72c5.305 0 9.605 2.615 9.605 5.842v32.946c0 3.226-4.3 5.841-9.605 5.841h-25.418c-5.305 0-9.606-2.615-9.606-5.841v-32.946c0-3.227 4.301-5.842 9.606-5.842h25.418z"/>
            </g>
        </g>
    </g>
</svg>
